<?xml version="1.0" encoding="UTF-8"?>
<svg version="1.1" xmlns="http://www.w3.org/2000/svg" width="968" height="258">
<path d="M0 0 C11.19573244 -0.02312269 22.39145924 -0.04091471 33.58721066 -0.05181217 C38.78528115 -0.05704116 43.98333536 -0.0641391 49.18139648 -0.07543945 C54.19342268 -0.08626776 59.20543318 -0.09227671 64.21747017 -0.09487724 C66.13412282 -0.09673159 68.05077457 -0.1003524 69.96742058 -0.10573006 C72.64228072 -0.11293975 75.31707514 -0.11399097 77.99194336 -0.11352539 C78.7925116 -0.11712067 79.59307983 -0.12071594 80.41790771 -0.12442017 C85.88594784 -0.11405216 85.88594784 -0.11405216 87 1 C87.38832629 4.55417287 87.15319884 7.60917222 86 11 C81.06382706 15.73918951 73.05860084 16.8821441 66.62109375 18.63671875 C65.37434875 18.97962952 65.37434875 18.97962952 64.10241699 19.32946777 C62.06886637 19.88845672 60.03451367 20.44452642 58 21 C51.39289503 51.48756903 51.39289503 51.48756903 45.16796875 82.0546875 C43.46808077 90.707629 41.7294176 99.35291202 40 108 C91.48 107.505 91.48 107.505 144 107 C148.1459987 86.80770519 148.1459987 86.80770519 152.28637695 66.61425781 C152.81181017 64.0605054 153.33743255 61.50679189 153.86328125 58.953125 C153.99526413 58.30688171 154.12724701 57.66063843 154.26322937 56.99481201 C155.97731212 48.60645281 157.85676058 40.28907676 160 32 C160.31324219 30.74703125 160.62648437 29.4940625 160.94921875 28.203125 C161.6328125 25.46875 162.31640625 22.734375 163 20 C162.41734375 19.91363281 161.8346875 19.82726562 161.234375 19.73828125 C153.32258113 18.38232916 146.16878591 15.58439295 139 12 C139.30769707 10.18667846 139.62129064 8.37435655 139.9375 6.5625 C140.11152344 5.55316406 140.28554687 4.54382813 140.46484375 3.50390625 C141 1 141 1 142 0 C144.67250067 -0.10045053 147.31918581 -0.13616649 149.9921875 -0.12939453 C151.2482077 -0.13202301 151.2482077 -0.13202301 152.52960205 -0.13470459 C155.31142214 -0.13912401 158.09317921 -0.1361848 160.875 -0.1328125 C162.79931653 -0.13348551 164.72363298 -0.13445552 166.64794922 -0.13571167 C170.68653165 -0.13718877 174.725092 -0.13503371 178.76367188 -0.13037109 C183.95268511 -0.1246738 189.14164663 -0.12795274 194.33065796 -0.13394356 C198.3059122 -0.13754886 202.28115409 -0.13641073 206.25640869 -0.13381577 C208.1702678 -0.13314641 210.08412802 -0.13397522 211.99798584 -0.13629532 C214.6679585 -0.13882133 217.3378462 -0.13498198 220.0078125 -0.12939453 C220.80680969 -0.13141876 221.60580688 -0.13344299 222.42901611 -0.13552856 C227.8857375 -0.1142625 227.8857375 -0.1142625 229 1 C228.94921875 2.9609375 228.94921875 2.9609375 228.6875 5.375 C228.60886719 6.16648437 228.53023438 6.95796875 228.44921875 7.7734375 C228 10 228 10 226 13 C223.63489519 13.98521671 221.37438978 14.80833739 218.9375 15.5625 C218.26154785 15.77865967 217.5855957 15.99481934 216.88916016 16.2175293 C203.52033681 20.42066689 203.52033681 20.42066689 197 20 C197.061875 20.928125 197.12375 21.85625 197.1875 22.8125 C197.1875 27.07318942 196.02443129 30.77695888 194.84375 34.84375 C193.94831463 38.19334157 193.30002572 41.52485672 192.6875 44.9375 C189.67394441 61.6705556 185.89985334 78.26693048 182 94.8125 C179.48088361 105.5265197 177.36406919 116.2931769 175.32250977 127.10717773 C173.55378913 136.41035553 171.56072794 145.64666611 169.4375 154.875 C166.19459814 168.98016072 163.29034619 183.13274189 160.54785156 197.34277344 C159.0049289 205.33329763 157.29019158 213.18736065 155 221 C155.96486328 221.12955078 155.96486328 221.12955078 156.94921875 221.26171875 C175.08108108 224.08108108 175.08108108 224.08108108 180 229 C180.26149964 233.61982692 180.11257974 235.77484052 178 240 C149.29 240 120.58 240 91 240 C92 231 92 231 94 228 C96.38525895 227.01731997 98.66976956 226.19302397 101.125 225.4375 C102.14170776 225.1132605 102.14170776 225.1132605 103.17895508 224.7824707 C115.17668166 221 115.17668166 221 121 221 C121.04943756 220.39622528 121.09887512 219.79245056 121.14981079 219.17037964 C121.70846636 212.95102052 122.68554609 206.92952263 123.9609375 200.8203125 C124.15217194 199.88629608 124.34340637 198.95227966 124.54043579 197.98995972 C124.94318777 196.02813348 125.34836051 194.06680277 125.75585938 192.10595703 C126.37171492 189.14081658 126.97945027 186.17410048 127.5859375 183.20703125 C129.34146441 174.66417611 131.14116934 166.15914405 133.32958984 157.71484375 C134.61828654 152.4962322 135.60320377 147.21362685 136.625 141.9375 C137.05293978 139.7379405 137.48254769 137.53870469 137.9140625 135.33984375 C138.0992041 134.38456787 138.2843457 133.42929199 138.47509766 132.44506836 C139 130 139 130 140 127 C105.35 127 70.7 127 35 127 C33.68 133.93 32.36 140.86 31 148 C30.08124633 152.40164293 29.15137568 156.79612789 28.1875 161.1875 C26.46727426 169.10322189 24.77931823 177.02320734 23.1640625 184.9609375 C23.00962173 185.71854874 22.85518097 186.47615997 22.69606018 187.25672913 C21.94198116 190.95887443 21.19208514 194.66180077 20.44799805 198.3659668 C18.9034467 205.99546044 17.18552958 213.52610171 15 221 C15.64493408 221.10231934 16.28986816 221.20463867 16.9543457 221.31005859 C23.4851419 222.38382345 33.17001371 224.17001371 38 229 C38.15031917 232.98345803 37.97229218 236.11083128 37 240 C7.96 240 -21.08 240 -51 240 C-49 229 -49 229 -46.3828125 226.9375 C-45.30773438 226.628125 -44.23265625 226.31875 -43.125 226 C-41.96226563 225.64550781 -40.79953125 225.29101562 -39.6015625 224.92578125 C-38.41304687 224.62027344 -37.22453125 224.31476563 -36 224 C-34.89398438 223.68417969 -33.78796875 223.36835938 -32.6484375 223.04296875 C-27.96266226 221.76978664 -23.85907126 220.93748266 -19 221 C-18.8868042 220.29907227 -18.7736084 219.59814453 -18.65698242 218.87597656 C-17.33548031 210.80841398 -15.8636987 202.77637174 -14.3125 194.75 C-14.18339233 194.08161102 -14.05428467 193.41322205 -13.92126465 192.72457886 C-11.74859566 181.51169038 -9.36983323 170.3524412 -6.89233398 159.20263672 C-3.66075816 144.62441962 -0.65063851 130.00037522 2.36035156 115.37524414 C4.56045057 104.71970004 6.8618207 94.09578733 9.29803467 83.49165344 C10.77734025 77.03629076 12.13351674 70.56801423 13.375 64.0625 C16.25632718 49.30212173 19.62957461 34.65484918 23 20 C21.9318103 19.82476807 21.9318103 19.82476807 20.84204102 19.64599609 C15.32232002 18.69917416 10.17099256 17.62173957 4.9375 15.625 C3.85339844 15.22539062 2.76929688 14.82578125 1.65234375 14.4140625 C-1.34000686 12.81872978 -1.93404149 12.14605568 -3 9 C-2.5390625 6.640625 -2.5390625 6.640625 -1.625 4.25 C-1.32851563 3.45078125 -1.03203125 2.6515625 -0.7265625 1.828125 C-0.48679688 1.22484375 -0.24703125 0.6215625 0 0 Z " fill="#F6F6F6" transform="translate(53,7)"/>
<path d="M0 0 C0.71494629 0.07839111 1.42989258 0.15678223 2.16650391 0.23754883 C6.27222 0.75286313 9.99777244 1.68764773 13.875 3.125 C13.875 3.785 13.875 4.445 13.875 5.125 C12.64007812 5.44210938 11.40515625 5.75921875 10.1328125 6.0859375 C-9.61742117 11.42362619 -26.54575009 20.88486702 -41.56640625 34.875 C-43.125 36.125 -43.125 36.125 -45.125 36.125 C-45.49625 37.053125 -45.49625 37.053125 -45.875 38 C-47.36240369 40.52858627 -48.56178009 40.84339004 -51.125 42.125 C-51.5271875 42.96804687 -51.5271875 42.96804687 -51.9375 43.828125 C-53.55633142 46.95928577 -55.7561416 49.27201025 -58.125 51.875 C-58.57617188 52.38160156 -59.02734375 52.88820312 -59.4921875 53.41015625 C-60.65860812 54.69045817 -61.88783971 55.91291729 -63.125 57.125 C-63.785 57.125 -64.445 57.125 -65.125 57.125 C-65.125 57.785 -65.125 58.445 -65.125 59.125 C-66.29129452 60.19360995 -67.51005932 61.2052998 -68.75 62.1875 C-73.19999803 65.94070118 -76.15158748 70.15804955 -79.125 75.125 C-74.51218392 74.16261391 -70.38085207 72.09505788 -66.09765625 70.18359375 C-63.19448075 69.14974282 -61.17186935 68.90616408 -58.125 69.125 C-58.125 70.115 -58.125 71.105 -58.125 72.125 C-58.785 72.125 -59.445 72.125 -60.125 72.125 C-60.39570312 72.68703125 -60.66640625 73.2490625 -60.9453125 73.828125 C-62.62149709 77.09168969 -64.56848786 80.17463998 -66.4921875 83.296875 C-70.85309259 90.85021299 -73.6226804 98.2809862 -76 106.6875 C-76.51663208 108.49927734 -76.51663208 108.49927734 -77.04370117 110.34765625 C-80.31011708 122.16335019 -82.62243081 134.09872127 -84.80078125 146.15625 C-87.95714729 163.31854636 -87.95714729 163.31854636 -91.125 169.125 C-91.785 169.125 -92.445 169.125 -93.125 169.125 C-93.41375 169.888125 -93.7025 170.65125 -94 171.4375 C-95.125 174.125 -95.125 174.125 -97.125 177.125 C-97.785 177.125 -98.445 177.125 -99.125 177.125 C-99.125 177.785 -99.125 178.445 -99.125 179.125 C-100.62890625 180.640625 -100.62890625 180.640625 -102.6875 182.375 C-105.90176216 185.08506182 -105.90176216 185.08506182 -109.0390625 187.8828125 C-112.28207785 190.84009962 -114.54665902 192.84752479 -119.125 193.125 C-120.21480844 186.73385232 -120.43775788 180.37499834 -120.66015625 173.90234375 C-120.70313339 172.72466934 -120.74611053 171.54699493 -120.79039001 170.33363342 C-120.88035979 167.84496354 -120.96850061 165.35622694 -121.05493164 162.86743164 C-121.18620785 159.09958684 -121.32408138 155.33202709 -121.46289062 151.56445312 C-122.3546059 126.88908833 -122.00138335 104.95791955 -115.125 81.125 C-114.73939148 79.77349222 -114.35395881 78.42193426 -113.96875 77.0703125 C-113.6903125 76.09835938 -113.411875 75.12640625 -113.125 74.125 C-124.84404946 103.5213797 -126.38026305 131.89479536 -126.65673828 163.29174805 C-126.88419834 186.8402719 -126.88419834 186.8402719 -128.0234375 197.92578125 C-128.09896851 198.67106583 -128.17449951 199.4163504 -128.25231934 200.18421936 C-129.53620361 211.1895009 -133.93139707 219.70811408 -142.125 227.125 C-150.31288084 233.58145149 -158.8293171 235.70534121 -169.125 235.125 C-165.57561586 231.27983385 -161.51211992 227.97377917 -157.125 225.125 C-156.465 225.125 -155.805 225.125 -155.125 225.125 C-154.8775 224.58875 -154.63 224.0525 -154.375 223.5 C-153.125 221.125 -153.125 221.125 -151.1875 218.625 C-146.59945698 211.77743203 -145.42421885 202.99667895 -146.484375 194.96484375 C-147.72939414 189.445765 -149.93562427 184.32553394 -152.125 179.125 C-159.38444599 161.33608731 -163.50101294 144.04390828 -163.38574219 124.82250977 C-163.37489132 122.66590057 -163.38577033 120.51010182 -163.3984375 118.35351562 C-163.3971178 116.96614402 -163.39455935 115.57877291 -163.390625 114.19140625 C-163.38836914 112.95334229 -163.38611328 111.71527832 -163.38378906 110.43969727 C-163.13367398 107.23610061 -162.5011059 105.00532494 -161.125 102.125 C-159.00996209 105.82155275 -158.04446761 109.78223434 -157 113.875 C-156.81824219 114.57238281 -156.63648438 115.26976562 -156.44921875 115.98828125 C-156.00383548 117.69949065 -155.56387484 119.41210983 -155.125 121.125 C-155.13660156 120.42117187 -155.14820313 119.71734375 -155.16015625 118.9921875 C-155.43663997 88.73696936 -147.63527564 52.73435575 -127.125 29.125 C-124.953125 27.89453125 -124.953125 27.89453125 -123.125 27.125 C-123.31835938 27.7540625 -123.51171875 28.383125 -123.7109375 29.03125 C-124.53041278 31.72497071 -125.33095219 34.42368047 -126.125 37.125 C-126.32609375 37.79273438 -126.5271875 38.46046875 -126.734375 39.1484375 C-128.37768221 45.04940431 -128.73898231 51.02998382 -129.125 57.125 C-126.60374999 53.84261792 -124.30878776 50.43421835 -122 47 C-117.84301405 40.91409004 -113.22554848 35.45333997 -108.125 30.125 C-107.59519531 29.55523437 -107.06539062 28.98546875 -106.51953125 28.3984375 C-105.43537293 27.26023023 -104.2881225 26.18238409 -103.125 25.125 C-102.465 25.125 -101.805 25.125 -101.125 25.125 C-101.125 24.465 -101.125 23.805 -101.125 23.125 C-98.77573899 21.12114293 -96.09793051 19.5378637 -93.5 17.875 C-92.72817383 17.37991943 -91.95634766 16.88483887 -91.16113281 16.37475586 C-63.91841498 -0.71503059 -31.36988141 -3.45141357 0 0 Z " fill="#F5F5F5" transform="translate(948.125,17.875)"/>
<path d="M0 0 C3.27036728 -0.14510162 6.53991007 -0.23399373 9.8125 -0.3125 C11.2056543 -0.3753418 11.2056543 -0.3753418 12.62695312 -0.43945312 C15.17117128 -0.48537764 17.49711519 -0.46250214 20 0 C22.01953125 2.171875 22.01953125 2.171875 23 5 C23.32742188 5.88816406 23.65484375 6.77632812 23.9921875 7.69140625 C24.28351563 8.63886719 24.57484375 9.58632812 24.875 10.5625 C26.20372756 14.69967446 27.65941618 18.69546841 29.375 22.6875 C31.82302478 28.41724222 33.90807624 34.24069949 35.94482422 40.12573242 C37.21298841 43.78936544 38.51960115 47.41476865 40 51 C42.86453858 47.58983503 44.34703566 44.09305456 46 40 C46.66 40 47.32 40 48 40 C48.09023438 39.18402344 48.18046875 38.36804688 48.2734375 37.52734375 C49.16349001 33.20628236 50.7837564 29.55279128 52.625 25.5625 C52.97892822 24.78205322 53.33285645 24.00160645 53.69750977 23.19750977 C54.7904358 20.79463138 55.89413381 18.3969465 57 16 C57.51747803 14.87029785 57.51747803 14.87029785 58.04541016 13.71777344 C59.00541206 11.62246088 59.96985137 9.52929098 60.9375 7.4375 C61.23156738 6.80078369 61.52563477 6.16406738 61.82861328 5.50805664 C63.88011584 1.11988416 63.88011584 1.11988416 65 0 C70.83426966 -0.56460674 70.83426966 -0.56460674 73 0 C75.40323092 3.56098884 77.14534113 7.35309333 78.890625 11.26953125 C79.28925499 12.16066116 79.28925499 12.16066116 79.69593811 13.0697937 C80.5505468 14.98259698 81.40048464 16.89742989 82.25 18.8125 C82.83470542 20.12548446 83.41958548 21.43839117 84.00463867 22.7512207 C85.15222196 25.32831202 86.29757882 27.9063746 87.44091797 30.48535156 C88.75971385 33.45832142 90.08373272 36.42886708 91.41015625 39.3984375 C92.0447838 40.82789737 92.6789542 42.25756036 93.3125 43.6875 C93.84488281 44.88761719 94.37726563 46.08773437 94.92578125 47.32421875 C96 50 96 50 96 52 C96.66 52 97.32 52 98 52 C98.17402344 51.22462891 98.17402344 51.22462891 98.3515625 50.43359375 C99.19933037 47.25191072 100.27774651 44.16454665 101.375 41.0625 C101.62467529 40.35536865 101.87435059 39.6482373 102.1315918 38.91967773 C104.92316368 31.09598352 107.86712053 23.32922918 110.8125 15.5625 C111.06078552 14.90718292 111.30907104 14.25186584 111.56488037 13.57669067 C115.81444237 2.37111527 115.81444237 2.37111527 117 0 C123.6 0 130.2 0 137 0 C138.11629956 5.5814978 138.11629956 5.5814978 135.9375 9.8125 C133.68158415 14.44931319 131.76910923 19.10162963 130 23.9375 C128.31259712 28.51880946 126.59462012 33.06667731 124.6875 37.5625 C119.57351309 49.64408721 114.92746518 61.93135705 110.25 74.1875 C107.9577891 80.17759816 105.50062323 86.09427279 103 92 C100.03 92 97.06 92 94 92 C89.62081403 83.49545162 85.67588974 74.86580487 81.9375 66.0625 C81.43412109 64.89009766 80.93074219 63.71769531 80.41210938 62.50976562 C77.46756987 55.61123905 74.68726272 48.67570424 72.08032227 41.64233398 C71.03649651 38.83963754 71.03649651 38.83963754 69 36 C68.34 37.65 67.68 39.3 67 41 C66.34 41 65.68 41 65 41 C64.89131592 41.85343994 64.78263184 42.70687988 64.6706543 43.58618164 C63.95292106 47.239645 62.77820896 50.21983915 61.26953125 53.62109375 C60.99662766 54.24291031 60.72372406 54.86472687 60.44255066 55.50538635 C59.57226395 57.48565326 58.6929582 59.46173727 57.8125 61.4375 C56.66962223 64.0179721 55.53086717 66.60023465 54.39453125 69.18359375 C54.11441193 69.81929291 53.8342926 70.45499207 53.54568481 71.10995483 C50.52645894 78.00500393 47.74951425 84.99389986 45 92 C41.7 92 38.4 92 35 92 C27.4323053 74.09385442 20.24674936 56.06623344 13.34155273 37.89428711 C12.74220423 36.32008139 12.14267859 34.7459431 11.54296875 33.171875 C11.25292465 32.40839249 10.96288055 31.64490997 10.66404724 30.85829163 C9.17928914 26.97671673 7.64754381 23.12314349 6.02978516 19.29492188 C5.7087532 18.53350891 5.38772125 17.77209595 5.05696106 16.98760986 C4.44932416 15.55687034 3.83454176 14.12913377 3.21098328 12.70526123 C1.37762188 8.39597218 0.46732857 4.61276834 0 0 Z " fill="#F0EFF0" transform="translate(447,158)"/>
<path d="M0 0 C4.15772839 0.28954617 4.15772839 0.28954617 8 -1 C10.71262116 -1.2322646 13.40773126 -1.41936235 16.125 -1.5625 C16.87910156 -1.60568359 17.63320313 -1.64886719 18.41015625 -1.69335938 C20.27321888 -1.7994832 22.13658524 -1.90025001 24 -2 C25.04204526 1.22266401 24.92357197 3.3356059 24.14453125 6.61328125 C23.93626709 7.51965332 23.72800293 8.42602539 23.51342773 9.35986328 C23.16646851 10.82141846 23.16646851 10.82141846 22.8125 12.3125 C20.97284642 20.38806161 19.31323466 28.45731858 17.9375 36.625 C16.11195991 47.44777826 14.0904093 58.22549673 12 69 C15.3 69.33 18.6 69.66 22 70 C22.495 73.465 22.495 73.465 23 77 C16.04662916 82.56588629 8.37967353 84.38303521 -0.375 84.5625 C-1.05272461 84.58916748 -1.73044922 84.61583496 -2.42871094 84.64331055 C-6.18474369 84.61584328 -7.92763128 84.05410924 -10.95703125 81.7890625 C-13.20332907 78.722415 -13.56579449 77.53311457 -13.3125 73.8125 C-13.26738281 72.95269531 -13.22226562 72.09289062 -13.17578125 71.20703125 C-13.08876953 70.11455078 -13.08876953 70.11455078 -13 69 C-13 68.34 -13 67.68 -13 67 C-13.680625 67.99 -13.680625 67.99 -14.375 69 C-14.91125 69.66 -15.4475 70.32 -16 71 C-16.66 71 -17.32 71 -18 71 C-18.25652344 71.58652344 -18.51304687 72.17304687 -18.77734375 72.77734375 C-21.68284004 78.0592204 -26.83614371 81.87384242 -32.4375 83.9375 C-38.49790988 85.61689069 -43.72698605 85.68190419 -49.75 83.875 C-56.21787066 80.14353616 -59.05433271 75.07968376 -61 68 C-61.4257337 64.82070851 -61.47727229 61.70464481 -61.4375 58.5 C-61.42920166 57.62851318 -61.42090332 56.75702637 -61.41235352 55.85913086 C-61.05944174 42.09557174 -57.25778196 30.76892625 -50 19 C-49.43539062 17.98873047 -49.43539062 17.98873047 -48.859375 16.95703125 C-43.67144911 8.49761478 -33.32643546 1.98155052 -24 -1 C-15.97411299 -2.78353045 -7.71790018 -2.87177681 0 0 Z M-23 15 C-23 15.66 -23 16.32 -23 17 C-23.66 17 -24.32 17 -25 17 C-26.30203187 19.49505641 -27.59160266 21.99537682 -28.875 24.5 C-29.23980469 25.19609375 -29.60460937 25.8921875 -29.98046875 26.609375 C-35.54747751 37.54095584 -38.71738564 53.34696148 -35.328125 65.38671875 C-34.46763463 67.4786593 -34.46763463 67.4786593 -33 70 C-29.3090029 70.28948997 -26.78865769 70.43376173 -23.5 68.625 C-19.78712301 64.72647916 -16.85461087 60.55885617 -14 56 C-13.38511719 55.02417969 -12.77023437 54.04835937 -12.13671875 53.04296875 C-4.85853816 40.15419927 -3.74476406 25.47127838 -2 11 C-9.36647016 7.72601326 -17.11352817 9.35879783 -23 15 Z " fill="#F0EFF0" transform="translate(733,47)"/>
<path d="M0 0 C1.18613892 0.00785522 1.18613892 0.00785522 2.39624023 0.01586914 C3.16524658 0.0183667 3.93425293 0.02086426 4.7265625 0.0234375 C5.70939209 0.0325415 6.69222168 0.04164551 7.70483398 0.05102539 C12.37639648 0.08196289 12.37639648 0.08196289 17.14233398 0.11352539 C17.63733398 14.46852539 17.63733398 14.46852539 18.14233398 29.11352539 C23.58733398 27.62852539 23.58733398 27.62852539 29.14233398 26.11352539 C41.25354361 24.98265943 51.44742991 27.0807206 61.09545898 34.64477539 C67.7419277 40.77108569 71.80410644 48.82941303 72.38061523 57.83618164 C72.6669939 69.11819921 71.50559434 79.03217096 64.14233398 88.11352539 C63.48233398 88.11352539 62.82233398 88.11352539 62.14233398 88.11352539 C62.14233398 88.77352539 62.14233398 89.43352539 62.14233398 90.11352539 C52.04181563 98.45743185 42.02824019 100.23795954 29.22143555 99.36743164 C24.83244317 98.83143445 20.97049317 97.26806725 17.14233398 95.11352539 C17.14233398 96.10352539 17.14233398 97.09352539 17.14233398 98.11352539 C13.99651975 98.14241053 10.8507393 98.16028462 7.70483398 98.17602539 C6.80700195 98.1844043 5.90916992 98.1927832 4.98413086 98.20141602 C3.703125 98.20625 3.703125 98.20625 2.39624023 98.21118164 C1.60548096 98.21641846 0.81472168 98.22165527 0 98.22705078 C-1.85766602 98.11352539 -1.85766602 98.11352539 -2.85766602 97.11352539 C-2.95827872 94.13591169 -2.99381494 91.18145372 -2.98706055 88.20336914 C-2.98881287 87.26848663 -2.99056519 86.33360413 -2.99237061 85.37039185 C-2.99679075 82.26391777 -2.99385056 79.1575001 -2.99047852 76.05102539 C-2.99115151 73.9025064 -2.99212149 71.75398748 -2.99337769 69.60546875 C-2.99485488 65.09610267 -2.99269941 60.58675636 -2.98803711 56.07739258 C-2.98233981 50.28303962 -2.9856187 44.48873297 -2.99160957 38.69438171 C-2.99521461 34.25589648 -2.99407687 29.81742232 -2.99148178 25.37893677 C-2.99081235 23.24179072 -2.99164149 21.10464368 -2.99396133 18.96749878 C-2.99648691 15.98619913 -2.99264861 13.00497559 -2.98706055 10.02368164 C-2.98908478 9.13117706 -2.99110901 8.23867249 -2.99319458 7.31912231 C-2.96827515 0.18139676 -2.96827515 0.18139676 0 0 Z M17.14233398 49.11352539 C16.25998408 53.53978469 16.49400935 58.04703809 16.51733398 62.55102539 C16.48510742 63.79174805 16.45288086 65.0324707 16.41967773 66.31079102 C16.41602274 69.68983099 16.49875456 72.79581723 17.14233398 76.11352539 C19.73773904 79.04456412 19.73773904 79.04456412 23.14233398 80.11352539 C24.14200195 80.54084961 24.14200195 80.54084961 25.16186523 80.97680664 C31.70220143 82.61545296 37.88767914 82.55267089 43.95483398 79.36352539 C49.00507327 75.7986506 51.89755833 72.22424225 53.14233398 66.11352539 C53.23121816 59.49659257 52.72713087 54.19397599 48.14233398 49.11352539 C38.736295 41.75227749 26.24407984 40.48533431 17.14233398 49.11352539 Z " fill="#EFEFEF" transform="translate(675.857666015625,151.886474609375)"/>
<path d="M0 0 C6.77287377 6.61161487 9.1291025 14.47580808 9.4753418 23.7956543 C9.6255947 38.7510246 6.31612025 52.04229588 -3 64 C-3.66 64 -4.32 64 -5 64 C-5 64.66 -5 65.32 -5 66 C-5.66 66 -6.32 66 -7 66 C-7.495 67.485 -7.495 67.485 -8 69 C-16.53217177 77.35395408 -27.29366547 79.93891075 -38.875 80.1875 C-47.79001113 80.07647869 -55.8068401 78.59176299 -63 73 C-70.81654125 64.60782199 -73.66520336 54.62909408 -73.35546875 43.31640625 C-71.57796532 26.73288523 -65.2779128 12.48240661 -52.30859375 1.63671875 C-37.48536869 -8.87247127 -14.97281121 -11.91019073 0 0 Z M-37.34375 9.47265625 C-45.04235549 19.40104076 -47.1729988 31.83608056 -47.6875 44.0625 C-47.73455078 44.90876953 -47.78160156 45.75503906 -47.83007812 46.62695312 C-48.39773422 55.61809974 -48.39773422 55.61809974 -45.87890625 64.05859375 C-42.02446891 68.09626944 -42.02446891 68.09626944 -36.75 69.375 C-32.16651463 68.91665146 -29.88492558 67.42985596 -27 64 C-18.48407902 51.42416321 -15.86685013 38.10558783 -15.6875 23.1875 C-15.66091309 21.82564575 -15.66091309 21.82564575 -15.63378906 20.4362793 C-15.6405932 14.29724408 -16.39670524 9.78924439 -20.75 5.125 C-27.26098454 1.86950773 -32.72227529 4.4078424 -37.34375 9.47265625 Z " fill="#F1F0F0" transform="translate(535,52)"/>
<path d="M0 0 C0.33 -0.99 0.66 -1.98 1 -3 C6.94 -3 12.88 -3 19 -3 C20.41226572 -0.17546856 20.12726444 2.18702513 20.12939453 5.34570312 C20.13202301 6.32155617 20.13202301 6.32155617 20.13470459 7.31712341 C20.13911298 9.47185925 20.13618868 11.6265133 20.1328125 13.78125 C20.13348583 15.275757 20.1344561 16.77026389 20.13571167 18.26477051 C20.13718727 21.39869224 20.1350385 24.53258548 20.13037109 27.66650391 C20.12467388 31.68843096 20.12795362 35.71029128 20.13394356 39.73221588 C20.13755288 42.81879176 20.13640887 45.90535175 20.13381577 48.9919281 C20.13314753 50.47513334 20.13397134 51.95834001 20.13629532 53.44154358 C20.13882791 55.51250034 20.13497267 57.58334824 20.12939453 59.65429688 C20.12859894 60.83407104 20.12780334 62.01384521 20.12698364 63.22937012 C20 66 20 66 19 68 C13.06 68 7.12 68 1 68 C0.67 67.01 0.34 66.02 0 65 C-1.051875 65.474375 -2.10375 65.94875 -3.1875 66.4375 C-12.01913032 70.42039211 -23.64496486 70.43961517 -32.8125 67.5625 C-42.55033657 63.4036323 -48.67336073 56.3124906 -52.94921875 46.78515625 C-54.20802127 43.44862765 -54.8653245 40.56890065 -55 37 C-55.04898437 36.34 -55.09796875 35.68 -55.1484375 35 C-55.63149506 24.59568336 -52.76318545 14.94452789 -46 7 C-40.35312791 0.8338753 -35.19472107 -2.3583423 -27 -4 C-26.17371094 -4.19207031 -25.34742188 -4.38414062 -24.49609375 -4.58203125 C-16.49882954 -5.92116626 -7.17899914 -3.58949957 0 0 Z M-31.9375 19.9375 C-35.74036331 25.58417582 -36.90314889 30.23767266 -36 37 C-34.14662608 42.88656829 -31.08884729 46.60743514 -26 50 C-19.68661496 52.67104752 -13.35101245 52.37568776 -6.875 50.328125 C-4.118482 49.20254682 -2.11528569 48.11528569 0 46 C0.51472947 41.56143244 0.41682876 37.08998859 0.4375 32.625 C0.47037109 31.37976563 0.50324219 30.13453125 0.53710938 28.8515625 C0.54419922 27.6553125 0.55128906 26.4590625 0.55859375 25.2265625 C0.57204834 24.12908691 0.58550293 23.03161133 0.59936523 21.90087891 C0.24118811 18.79566008 0.24118811 18.79566008 -2.41040039 16.66259766 C-11.63166163 10.74228192 -24.49117182 11.43682446 -31.9375 19.9375 Z " fill="#EFEEEF" transform="translate(403,182)"/>
<path d="M0 0 C9.17662074 7.45169203 12.45942991 16.5034957 14 28 C14.21690355 30.44468382 14.20538889 32.53533334 14 35 C11.51072892 37.48927108 10.7123565 37.26596375 7.27490234 37.31884766 C5.80360367 37.34865219 5.80360367 37.34865219 4.30258179 37.37905884 C2.71034286 37.39638565 2.71034286 37.39638565 1.0859375 37.4140625 C-0.54122696 37.44311172 -0.54122696 37.44311172 -2.20126343 37.4727478 C-5.67576159 37.53266426 -9.15029267 37.57897739 -12.625 37.625 C-14.97657718 37.66316865 -17.32814021 37.70221971 -19.6796875 37.7421875 C-25.4529997 37.83837559 -31.22639666 37.92338753 -37 38 C-33.69695719 43.12637855 -30.95154642 47.01615119 -25 49 C-17.53032524 49.67503727 -11.22597561 49.48570291 -5 45 C-3.97696787 44.02357526 -2.9700795 43.0290509 -2 42 C1.2826932 43.49076434 3.93077441 45.38620321 6.75 47.625 C7.54921875 48.25664062 8.3484375 48.88828125 9.171875 49.5390625 C9.77515625 50.02117187 10.3784375 50.50328125 11 51 C10.67 52.32 10.34 53.64 10 55 C9.34 55 8.68 55 8 55 C8 55.66 8 56.32 8 57 C7.34 57 6.68 57 6 57 C6 57.66 6 58.32 6 59 C3.75243216 60.15082685 1.50218252 61.29576858 -0.75 62.4375 C-1.70132813 62.92573242 -1.70132813 62.92573242 -2.671875 63.42382812 C-11.77911056 68.02487942 -22.39726211 68.48523125 -32.3515625 66.24609375 C-37.34092837 64.49363053 -41.88441122 62.33696388 -46 59 C-46 58.34 -46 57.68 -46 57 C-46.89138672 56.67128906 -46.89138672 56.67128906 -47.80078125 56.3359375 C-50.7183619 54.56362386 -51.618194 52.63451742 -53.1875 49.625 C-53.69667969 48.66851562 -54.20585938 47.71203125 -54.73046875 46.7265625 C-58.57268785 38.47465809 -58.41072737 26.68676629 -56.24609375 17.9609375 C-55.31041632 15.82539136 -54.28023439 13.9448857 -53 12 C-52.443125 10.989375 -51.88625 9.97875 -51.3125 8.9375 C-39.00217093 -6.69994504 -17.008687 -12.21136503 0 0 Z M-32 13 C-32 13.66 -32 14.32 -32 15 C-32.66 15 -33.32 15 -34 15 C-36.2013866 18.80427492 -36.2013866 18.80427492 -37 23 C-34.25475448 24.37262276 -32.03780705 24.1296881 -28.96875 24.1328125 C-27.76605469 24.13410156 -26.56335938 24.13539063 -25.32421875 24.13671875 C-23.43123047 24.13091797 -23.43123047 24.13091797 -21.5 24.125 C-20.23800781 24.12886719 -18.97601562 24.13273437 -17.67578125 24.13671875 C-15.87173828 24.13478516 -15.87173828 24.13478516 -14.03125 24.1328125 C-12.92330078 24.13168457 -11.81535156 24.13055664 -10.67382812 24.12939453 C-8.02681484 24.18151469 -8.02681484 24.18151469 -6 23 C-6.17412152 18.55990123 -6.52451232 16.52187672 -9.5625 13.1875 C-17.30009114 7.64222635 -23.85723694 8.92861847 -32 13 Z " fill="#EFEEEE" transform="translate(649,184)"/>
<path d="M0 0 C0.87753189 7.14561678 -1.10463526 13.0114002 -5.32421875 18.82421875 C-7 20 -7 20 -9.359375 20.0703125 C-13.03162168 18.58185748 -14.86551265 15.89847324 -17.25 12.875 C-20.74818074 8.57093648 -20.74818074 8.57093648 -25.71484375 6.4296875 C-27.9732652 6.72224762 -29.89261913 7.14664083 -32 8 C-32 8.66 -32 9.32 -32 10 C-32.66 10 -33.32 10 -34 10 C-32.87616211 21.19250799 -27.18448783 26.20415703 -18.98828125 33.22265625 C-12.65565008 38.88345622 -7.67480446 44.61112551 -6.7578125 53.29296875 C-6.53636129 60.63776709 -8.40296134 66.19321432 -13 72 C-24.00580825 82.05197153 -36.66961669 82.6300845 -51 82 C-57.90064424 81.24179291 -63.80724208 79.08142061 -70 76 C-70.57899271 69.19683566 -68.68985134 63.71342308 -64.67578125 58.171875 C-63 57 -63 57 -60.6484375 56.96875 C-56.53221118 58.57152839 -54.1068493 61.78984253 -51.28125 65.05078125 C-48.67898241 67.8686653 -47.08642114 68.97841768 -43.32421875 69.91796875 C-39.45642847 70.01341363 -37.95749189 69.45049328 -35 67 C-33.18758232 64.61090397 -33.00578282 63.25444394 -32.9375 60.25 C-35.29254047 53.04634681 -41.61731898 48.40883669 -47.125 43.5 C-53.45593923 37.84521833 -58.49454132 32.25991133 -59.203125 23.484375 C-59.33383192 15.85980471 -58.30543332 10.45814998 -54 4 C-53.34 4 -52.68 4 -52 4 C-52 3.34 -52 2.68 -52 2 C-40.03035365 -8.30719547 -12.94154667 -8.62769778 0 0 Z " fill="#F0EFF0" transform="translate(397,50)"/>
<path d="M0 0 C0.42765417 6.41481258 -1.14256832 11.88595404 -3 18 C-1.17662109 17.98259766 -1.17662109 17.98259766 0.68359375 17.96484375 C2.26822764 17.95546722 3.85286318 17.94636687 5.4375 17.9375 C6.23994141 17.92912109 7.04238281 17.92074219 7.86914062 17.91210938 C9.91295221 17.9034857 11.95683902 17.9477185 14 18 C15.66561399 19.66561399 15.17115945 21.65962705 15.1875 23.9375 C15.20167969 24.83339844 15.21585937 25.72929688 15.23046875 26.65234375 C15 29 15 29 13 31 C11.02880859 31.22705078 11.02880859 31.22705078 8.6484375 31.1953125 C7.79765625 31.18886719 6.946875 31.18242188 6.0703125 31.17578125 C5.18085938 31.15902344 4.29140625 31.14226563 3.375 31.125 C2.02921875 31.11146484 2.02921875 31.11146484 0.65625 31.09765625 C-1.56276586 31.0740497 -3.78125077 31.0411231 -6 31 C-6.10957031 31.69222656 -6.21914063 32.38445313 -6.33203125 33.09765625 C-8.1697304 44.43760467 -10.27163978 55.65940224 -13.37109375 66.7265625 C-15.2408223 73.48545702 -15.10144068 80.03440646 -15 87 C-8.85661317 90.07169341 -0.30496166 87.70569011 6 86 C8 89 8 89 8 92 C7.34 92 6.68 92 6 92 C6 92.66 6 93.32 6 94 C-4.39903594 101.51157727 -15.13878965 105.0783027 -28 104 C-32.73460172 103.06047747 -36.05362501 101.94637499 -39.5 98.5 C-44.05894664 90.9017556 -42.03479151 81.53732803 -40.4375 73.25 C-40.26766602 72.33911621 -40.09783203 71.42823242 -39.92285156 70.48974609 C-37.37465239 57.23779463 -34.15870029 44.1168625 -31 31 C-31.62648438 31.01160156 -32.25296875 31.02320313 -32.8984375 31.03515625 C-33.71570313 31.04417969 -34.53296875 31.05320313 -35.375 31.0625 C-36.59316406 31.07990234 -36.59316406 31.07990234 -37.8359375 31.09765625 C-40 31 -40 31 -42 30 C-42 27.69 -42 25.38 -42 23 C-37.34525646 20.15015702 -33.29860806 18.2976183 -28 17 C-27.84144531 16.16855469 -27.68289063 15.33710937 -27.51953125 14.48046875 C-27.28621094 13.39378906 -27.05289062 12.30710937 -26.8125 11.1875 C-26.59207031 10.10855469 -26.37164062 9.02960937 -26.14453125 7.91796875 C-24.71012091 4.26095672 -23.55662108 3.56132174 -20 2 C-13.28404567 -0.14230442 -6.92366788 -1.77117085 0 0 Z " fill="#F1F1F1" transform="translate(447,28)"/>
<path d="M0 0 C6.45761523 4.26423169 10.04445337 9.5127301 12 17 C12.27288064 20.98838064 12.23259285 24.9648842 12.1953125 28.9609375 C12.1924826 30.10664215 12.18965271 31.2523468 12.18673706 32.43276978 C12.17557135 36.08028755 12.15047299 39.72755685 12.125 43.375 C12.11496555 45.85286103 12.10584051 48.33072592 12.09765625 50.80859375 C12.07564376 56.87249109 12.04113838 62.93620346 12 69 C5.73 69 -0.54 69 -7 69 C-7.03738281 65.98875 -7.07476562 62.9775 -7.11328125 59.875 C-7.15957186 56.93921901 -7.21077811 54.00356171 -7.26245117 51.06787109 C-7.29558213 49.03702391 -7.32365043 47.00608726 -7.34643555 44.97509766 C-7.38019977 42.04551282 -7.43252599 39.1167391 -7.48828125 36.1875 C-7.49467117 35.28821777 -7.5010611 34.38893555 -7.50764465 33.46240234 C-7.64070211 27.6794973 -8.48779629 23.24388116 -11 18 C-15.66974069 15.12631342 -19.58438144 14.35746898 -25 15 C-28.3 16.32 -31.6 17.64 -35 19 C-35.33 35.5 -35.66 52 -36 69 C-42.27 69 -48.54 69 -55 69 C-55 45.57 -55 22.14 -55 -2 C-48.73 -2 -42.46 -2 -36 -2 C-35.67 -1.34 -35.34 -0.68 -35 0 C-34.45214844 -0.2165625 -33.90429688 -0.433125 -33.33984375 -0.65625 C-22.86162069 -4.33640639 -10.19296864 -4.95774155 0 0 Z " fill="#F5F5F5" transform="translate(325,181)"/>
<path d="M0 0 C-0.33 4.29 -0.66 8.58 -1 13 C0.19625 11.4325 1.3925 9.865 2.625 8.25 C6.6203165 3.25055085 9.85111135 0.04962955 16 -2 C17.97564353 -2.14449151 19.95679761 -2.22061999 21.9375 -2.25 C23.49791016 -2.28867187 23.49791016 -2.28867187 25.08984375 -2.328125 C28.37323671 -1.95791693 29.75295154 -1.4094857 32 1 C33.05102628 7.42439811 29.62082428 14.31162002 27 20 C26.54625 21.010625 26.0925 22.02125 25.625 23.0625 C24 25 24 25 21.265625 25.8671875 C16.95810545 26.0423737 15.46185722 24.70756975 12.125 22.0625 C11.15820312 21.31097656 10.19140625 20.55945313 9.1953125 19.78515625 C8.47085938 19.19605469 7.74640625 18.60695313 7 18 C1.16784941 20.66895027 -1.69477165 24.8555266 -4.125 30.625 C-7.37153957 39.38674534 -9.13376551 48.45402194 -10.80053711 57.62182617 C-11.80235315 63.08455893 -12.93196347 68.51342724 -14.125 73.9375 C-14.29572021 74.72527832 -14.46644043 75.51305664 -14.64233398 76.32470703 C-15.87919589 81.87919589 -15.87919589 81.87919589 -17 83 C-18.78071246 83.08726223 -20.5648314 83.10699041 -22.34765625 83.09765625 C-23.42724609 83.09443359 -24.50683594 83.09121094 -25.61914062 83.08789062 C-26.75544922 83.07951172 -27.89175781 83.07113281 -29.0625 83.0625 C-30.20267578 83.05798828 -31.34285156 83.05347656 -32.51757812 83.04882812 C-35.34510604 83.03699746 -38.17251896 83.01967618 -41 83 C-40.46413023 74.66618538 -39.06409253 66.68456709 -37.3125 58.52734375 C-37.04993408 57.28247696 -36.78736816 56.03761017 -36.5168457 54.75502014 C-35.96504733 52.14499541 -35.41095128 49.53560478 -34.85253906 46.92700195 C-34.13674081 43.58264145 -33.42908054 40.2366236 -32.72413635 36.88996029 C-32.0484694 33.68507257 -31.3679638 30.4812159 -30.6875 27.27734375 C-30.30621948 25.47438087 -30.30621948 25.47438087 -29.91723633 23.63499451 C-29.68029053 22.52946732 -29.44334473 21.42394012 -29.19921875 20.28491211 C-28.99127686 19.30993271 -28.78333496 18.33495331 -28.5690918 17.33042908 C-28 15 -28 15 -27 13 C-31.455 12.01 -31.455 12.01 -36 11 C-36 8.69 -36 6.38 -36 4 C-26.44263897 -0.35578844 -9.59397962 -6.39598641 0 0 Z " fill="#F0EFEF" transform="translate(593,47)"/>
<path d="M0 0 C0.66 0.66 1.32 1.32 2 2 C1.51763903 9.42299937 -0.20967555 16.77125512 -1.625 24.0625 C-1.75328186 24.72653839 -1.88156372 25.39057678 -2.01373291 26.07473755 C-4.99495601 41.46152543 -8.45029354 56.73562892 -12 72 C-11.28972656 71.98839844 -10.57945312 71.97679688 -9.84765625 71.96484375 C-8.92855469 71.95582031 -8.00945312 71.94679688 -7.0625 71.9375 C-6.14597656 71.92589844 -5.22945313 71.91429688 -4.28515625 71.90234375 C-2 72 -2 72 -1 73 C-0.5625 75.8125 -0.5625 75.8125 -1 79 C-7.83905015 85.13760911 -15.97266989 86.28413788 -24.8125 86.4375 C-25.55411377 86.45973633 -26.29572754 86.48197266 -27.05981445 86.50488281 C-30.6195729 86.49031189 -32.60030825 86.31044639 -35.44921875 84.09765625 C-39.19270608 79.03404745 -37.75167263 74.00817915 -37 68 C-36.24286615 63.75710493 -35.29557516 59.57068001 -34.3125 55.375 C-33.91973877 53.65446411 -33.91973877 53.65446411 -33.51904297 51.89916992 C-32.68728193 48.26424043 -31.84395133 44.63211646 -31 41 C-30.42250573 38.48843552 -29.84567902 35.97671745 -29.26953125 33.46484375 C-27.85532148 27.30780184 -26.43144298 21.15305687 -25 15 C-26.093125 14.855625 -27.18625 14.71125 -28.3125 14.5625 C-32 14 -32 14 -35 13 C-35 10.69 -35 8.38 -35 6 C-24.8009281 1.53790604 -11.18026188 -1.64919572 0 0 Z " fill="#F1F0F0" transform="translate(322,45)"/>
<path d="M0 0 C-0.5751559 7.09102895 -1.63672345 13.97044028 -3.0625 20.9375 C-3.27221436 21.97640381 -3.48192871 23.01530762 -3.69799805 24.08569336 C-6.85108849 39.4510354 -10.44669622 54.72331005 -14 70 C-10.37 70 -6.74 70 -3 70 C-3 72.64 -3 75.28 -3 78 C-4.37332284 78.62867668 -5.74875833 79.25273891 -7.125 79.875 C-7.89070312 80.22304687 -8.65640625 80.57109375 -9.4453125 80.9296875 C-15.36642802 83.41039951 -20.25908297 84.36394806 -26.625 84.375 C-27.75035156 84.41173828 -27.75035156 84.41173828 -28.8984375 84.44921875 C-32.26767792 84.46714024 -34.46657226 84.39651109 -37.21337891 82.35473633 C-40.74892316 77.69494891 -39.60067905 71.57499085 -39 66 C-38.09277668 59.99078039 -36.66123547 54.09408244 -35.25 48.1875 C-34.8970478 46.66112797 -34.54548056 45.13443502 -34.1953125 43.60742188 C-33.32656953 39.83587599 -32.44011001 36.06880016 -31.54614258 32.30316162 C-30.78575998 29.09651909 -30.03245884 25.88822391 -29.27874756 22.68000793 C-28.52048802 19.45302656 -27.76026226 16.22651007 -27 13 C-30.3 12.34 -33.6 11.68 -37 11 C-37 8.69 -37 6.38 -37 4 C-27.55276039 -0.13316733 -9.25662384 -6.17108256 0 0 Z " fill="#F1F0F0" transform="translate(664,47)"/>
<path d="M0 0 C5.72782739 0.02523272 9.78147424 0.82363494 14.9375 3.25 C15.3984375 6.37890625 15.3984375 6.37890625 14.9375 10.25 C12.83239134 12.72438556 10.25348208 14.39511051 7.5625 16.1875 C6.0927225 17.22119683 4.62397204 18.25635549 3.15625 19.29296875 C2.43566406 19.79231934 1.71507812 20.29166992 0.97265625 20.80615234 C-2.58349306 23.32907305 -5.89455764 26.13029213 -9.2421875 28.921875 C-11.0625 30.25 -11.0625 30.25 -13.0625 30.25 C-13.0625 30.91 -13.0625 31.57 -13.0625 32.25 C-16.32013222 34.42175481 -17.28689213 34.71043998 -21.0625 34.25 C-23.375 32.75 -23.375 32.75 -25.0625 31.25 C-24.1875 26.5 -24.1875 26.5 -23.0625 24.25 C-22.4025 24.25 -21.7425 24.25 -21.0625 24.25 C-20.95744141 23.6830542 -20.85238281 23.1161084 -20.74414062 22.53198242 C-19.94507661 19.85689241 -18.74634041 18.03136659 -17.15625 15.73828125 C-16.28806641 14.47854492 -16.28806641 14.47854492 -15.40234375 13.19335938 C-14.79519531 12.32517578 -14.18804688 11.45699219 -13.5625 10.5625 C-12.95535156 9.68271484 -12.34820313 8.80292969 -11.72265625 7.89648438 C-6.31563542 0.0870122 -6.31563542 0.0870122 0 0 Z " fill="#E8E7E8" transform="translate(527.0625,3.75)"/>
<path d="M0 0 C2.62352311 1.79167432 3.91126127 3.06379683 5.5625 5.75 C6.50231166 11.00511353 6.51442186 15.37811262 3.4375 19.8125 C-2.08626811 23.53503938 -6.50580142 24.22121474 -13.02734375 23.3359375 C-17.21015448 22.31904672 -18.71167129 21.17475915 -21.4375 17.75 C-22.83574849 12.98324378 -22.83920937 9.04964796 -21.375 4.3125 C-16.15145803 -2.59605551 -7.64510615 -2.7800386 0 0 Z " fill="#ECEBEC" transform="translate(663.4375,9.25)"/>
<path d="M0 0 C3.6875 1.5 3.6875 1.5 6 3 C6 3.66 6 4.32 6 5 C6.66 5 7.32 5 8 5 C9.65719875 9.97159624 9.72661395 14.91098488 8 19.875 C4.47163955 23.62388298 0.56136129 24.86581466 -4.53515625 25.1328125 C-10.63227295 24.82013985 -13.80172368 23.41357254 -18 19 C-19.91322609 15.17354781 -19.82647987 11.13856711 -19 7 C-14.46742909 -0.17868074 -7.96193629 -1.38152319 0 0 Z " fill="#EDECED" transform="translate(320,8)"/>
<path d="M0 0 C11.19573244 -0.02312269 22.39145924 -0.04091471 33.58721066 -0.05181217 C38.78528115 -0.05704116 43.98333536 -0.0641391 49.18139648 -0.07543945 C54.19342268 -0.08626776 59.20543318 -0.09227671 64.21747017 -0.09487724 C66.13412282 -0.09673159 68.05077457 -0.1003524 69.96742058 -0.10573006 C72.64228072 -0.11293975 75.31707514 -0.11399097 77.99194336 -0.11352539 C78.7925116 -0.11712067 79.59307983 -0.12071594 80.41790771 -0.12442017 C85.88594784 -0.11405216 85.88594784 -0.11405216 87 1 C87.04063832 2.66617115 87.042721 4.33388095 87 6 C86.01 4.515 86.01 4.515 85 3 C82.27819956 2.71368017 79.78479099 2.62168966 77.06201172 2.65942383 C75.83262375 2.65876671 75.83262375 2.65876671 74.57839966 2.65809631 C71.86192222 2.66019094 69.14605747 2.68355335 66.4296875 2.70703125 C64.54924863 2.71262482 62.6688054 2.71689604 60.7883606 2.71989441 C55.8332721 2.73136205 50.8784464 2.76084565 45.92346191 2.79400635 C40.8695837 2.82466596 35.81566311 2.83839094 30.76171875 2.85351562 C20.84103021 2.88571357 10.92053694 2.93693301 1 3 C0.34 4.65 -0.32 6.3 -1 8 C-2.2077558 4.37673261 -1.54311128 3.35853631 0 0 Z " fill="#8B8A8A" transform="translate(53,7)"/>
<path d="M0 0 C0.66 0 1.32 0 2 0 C1.67 1.65 1.34 3.3 1 5 C11.23 5 21.46 5 32 5 C32.33 3.68 32.66 2.36 33 1 C33.495 3.97 33.495 3.97 34 7 C22.45 7 10.9 7 -1 7 C-0.67 4.69 -0.34 2.38 0 0 Z " fill="#C0BFBF" transform="translate(611,202)"/>
<path d="M0 0 C0.66 0 1.32 0 2 0 C1.80664062 0.6290625 1.61328125 1.258125 1.4140625 1.90625 C-0.2092125 7.24216385 -1.69460565 12.57759268 -3 18 C-3.33 18 -3.66 18 -4 18 C-4 15.36 -4 12.72 -4 10 C-4.66 10 -5.32 10 -6 10 C-5.49259538 5.60249328 -2.91706686 3.13051078 0 0 Z " fill="#ACAAAB" transform="translate(823,45)"/>
<path d="M0 0 C0.33 0.66 0.66 1.32 1 2 C6.61 2 12.22 2 18 2 C18.33 2.66 18.66 3.32 19 4 C12.4 4 5.8 4 -1 4 C-0.67 2.68 -0.34 1.36 0 0 Z " fill="#7B7979" transform="translate(443,44)"/>
<path d="M0 0 C0.66 0 1.32 0 2 0 C0.61761648 3.10009769 -0.98578859 5.28263873 -3.375 7.6875 C-3.96023438 8.28949219 -4.54546875 8.89148438 -5.1484375 9.51171875 C-7.12608914 11.10135013 -8.5214179 11.5905426 -11 12 C-10.06409496 10.8944811 -9.12620142 9.79064547 -8.1875 8.6875 C-7.66542969 8.07261719 -7.14335938 7.45773438 -6.60546875 6.82421875 C-3.6626898 3.48047722 -3.6626898 3.48047722 -2 2 C-1.34 2 -0.68 2 0 2 C0 1.34 0 0.68 0 0 Z " fill="#BAB9BA" transform="translate(847,41)"/>
<path d="M0 0 C0.66 0.33 1.32 0.66 2 1 C0.21427748 2.83947337 -1.57802449 4.67157741 -3.375 6.5 C-3.88289062 7.02464844 -4.39078125 7.54929688 -4.9140625 8.08984375 C-6.23832604 9.43153181 -7.61605865 10.71995815 -9 12 C-9.66 12 -10.32 12 -11 12 C-9.49650623 8.33213607 -7.36271208 6.31089607 -4.375 3.75 C-3.14910156 2.69039062 -3.14910156 2.69039062 -1.8984375 1.609375 C-1.27195312 1.07828125 -0.64546875 0.5471875 0 0 Z " fill="#BBBABB" transform="translate(609,182)"/>
<path d="M0 0 C0.66 0.33 1.32 0.66 2 1 C1.15115234 1.56267578 1.15115234 1.56267578 0.28515625 2.13671875 C-4.35772851 5.19363427 -4.35772851 5.19363427 -7 9.875 C-7 10.57625 -7 11.2775 -7 12 C-7.33 12 -7.66 12 -8 12 C-7.67 9.03 -7.34 6.06 -7 3 C-4.69631264 1.93347808 -2.35981813 0.93578995 0 0 Z " fill="#BCBBBC" transform="translate(11,233)"/>
<path d="M0 0 C0.33 0.66 0.66 1.32 1 2 C-1.97 4.31 -4.94 6.62 -8 9 C-8.33 8.34 -8.66 7.68 -9 7 C-6.64480474 3.20551875 -4.0369867 1.79421631 0 0 Z " fill="#C0BABB" transform="translate(873,92)"/>
<path d="M0 0 C-2.07059961 4.6190299 -4.3809701 6.92940039 -9 9 C-7.45665977 5.21180126 -4.44676575 0 0 0 Z " fill="#AFACAE" transform="translate(483,55)"/>
<path d="M0 0 C2 3 2 3 2 6 C-1.63 6 -5.26 6 -9 6 C-9 5.67 -9 5.34 -9 5 C-4.545 4.505 -4.545 4.505 0 4 C0 2.68 0 1.36 0 0 Z " fill="#C6ACB9" transform="translate(643,203)"/>
<path d="M0 0 C1.65 0 3.3 0 5 0 C5.33 0.99 5.66 1.98 6 3 C4.02 3.33 2.04 3.66 0 4 C0 2.68 0 1.36 0 0 Z " fill="#9E999A" transform="translate(956,20)"/>
<path d="M0 0 C1.9375 0.6875 1.9375 0.6875 4 2 C4.75 4.625 4.75 4.625 5 7 C3.29115995 5.37660195 1.62553283 3.70680947 0 2 C0 1.34 0 0.68 0 0 Z " fill="#979696" transform="translate(406,122)"/>
<path d="M0 0 C0.33 0 0.66 0 1 0 C0.67 3.3 0.34 6.6 0 10 C-0.66 9.01 -1.32 8.02 -2 7 C-1.125 3.3125 -1.125 3.3125 0 0 Z " fill="#D1C9C9" transform="translate(723,103)"/>
</svg>
